<?xml version="1.0" encoding="UTF-8" standalone="no"?>
<!-- Created with Inkscape (http://www.inkscape.org/) -->

<svg
   xmlns:dc="http://purl.org/dc/elements/1.1/"
   xmlns:cc="http://creativecommons.org/ns#"
   xmlns:rdf="http://www.w3.org/1999/02/22-rdf-syntax-ns#"
   xmlns:svg="http://www.w3.org/2000/svg"
   xmlns="http://www.w3.org/2000/svg"
   xmlns:sodipodi="http://sodipodi.sourceforge.net/DTD/sodipodi-0.dtd"
   xmlns:inkscape="http://www.inkscape.org/namespaces/inkscape"
   width="195.08646mm"
   height="197.25879mm"
   viewBox="0 0 195.08646 197.25879"
   version="1.1"
   id="svg8"
   inkscape:version="0.92.2 (5c3e80d, 2017-08-06)"
   sodipodi:docname="loading.svg">
  <defs
     id="defs2" />
  <sodipodi:namedview
     id="base"
     pagecolor="#ffffff"
     bordercolor="#666666"
     borderopacity="1.0"
     inkscape:pageopacity="0.0"
     inkscape:pageshadow="2"
     inkscape:zoom="1"
     inkscape:cx="244.25296"
     inkscape:cy="369.82705"
     inkscape:document-units="mm"
     inkscape:current-layer="layer1"
     showgrid="false"
     inkscape:window-width="1920"
     inkscape:window-height="999"
     inkscape:window-x="1911"
     inkscape:window-y="-9"
     inkscape:window-maximized="1" />
  <metadata
     id="metadata5">
    <rdf:RDF>
      <cc:Work
         rdf:about="">
        <dc:format>image/svg+xml</dc:format>
        <dc:type
           rdf:resource="http://purl.org/dc/dcmitype/StillImage" />
        <dc:title></dc:title>
      </cc:Work>
    </rdf:RDF>
  </metadata>
  <g
     inkscape:label="Layer 1"
     inkscape:groupmode="layer"
     id="layer1"
     transform="translate(-7.2091133,-7.0912798)">
    <path
       style="fill:#ffffff;stroke-width:0.24541949"
       d="m 33.287712,99.110885 c 0.128121,-21.689654 0.02128,-20.323931 1.809032,-23.124013 1.786902,-2.798747 2.298091,-3.129203 24.720137,-15.980196 l 10.892706,-6.243057 1.159862,2.365172 c 0.637924,1.300843 1.784809,3.2963 2.548628,4.434347 0.763821,1.138047 1.30386,2.141972 1.200084,2.230944 -0.103776,0.08897 -3.060091,1.815277 -6.56959,3.83623 -3.509499,2.020955 -10.397594,5.986774 -15.306878,8.812934 -4.909283,2.826161 -9.188786,5.381684 -9.510006,5.678946 l -0.584034,0.540475 v 18.479533 18.47954 h -5.237596 -5.237598 z"
       id="path3732"
       inkscape:connector-curvature="0" />
    <path
       style="fill:#ffffff;stroke-width:0.24541949"
       d="m 100.89326,65.985441 c -0.43785,-0.103945 -0.974636,-0.337164 -1.192851,-0.518264 -0.476785,-0.3957 -0.443964,-0.889781 0.779341,-11.730959 0.46282,-4.101549 0.84149,-7.497542 0.84149,-7.54665 0,-0.403357 -1.460714,0.54612 -7.38347,4.799319 -3.744174,2.688734 -7.252649,5.144753 -7.796615,5.457817 l -0.989023,0.569209 -0.689194,-0.509908 c -1.693609,-1.253036 -4.24778,-5.636046 -4.24778,-7.289278 0,-0.670552 0.14558,-0.991748 0.577892,-1.275008 0.31784,-0.208258 3.824272,-1.813251 7.792069,-3.566653 9.376829,-4.143694 9.408054,-4.158682 9.151358,-4.391581 -0.120588,-0.109404 -2.924994,-1.388681 -6.232022,-2.84284 -3.307028,-1.454158 -7.172385,-3.153768 -8.589682,-3.776913 l -2.576905,-1.132992 -0.07937,-0.972171 c -0.06154,-0.753783 0.146747,-1.414982 0.927161,-2.943368 1.797269,-3.519826 3.356161,-5.256646 4.416164,-4.920214 0.276274,0.08768 3.125482,2.061699 6.331568,4.386695 7.785852,5.646156 9.049879,6.538459 9.262259,6.538459 0.0991,0 0.11419,-0.358926 0.0334,-0.797613 -0.35999,-1.957005 -1.887496,-17.756185 -1.764208,-18.247408 0.256851,-1.023364 1.878148,-1.395357 5.606668,-1.286402 3.78125,0.110497 4.5939,0.409101 4.5939,1.688006 0,0.684392 -1.57051,16.087873 -1.81951,17.845804 -0.0622,0.438687 -0.007,0.797613 0.12455,0.797613 0.13065,0 3.13317,-2.131903 6.67226,-4.737562 8.65737,-6.373992 8.62322,-6.351552 9.37545,-6.162753 0.9283,0.232987 2.3677,2.018735 3.65103,4.529536 1.34119,2.624038 1.46646,3.690672 0.50719,4.319208 -0.34747,0.227668 -4.12999,1.975928 -8.40561,3.885025 -4.27564,1.909098 -7.98481,3.589493 -8.24261,3.734214 -0.46022,0.258355 -0.46007,0.267753 0.009,0.51838 0.26232,0.14039 3.12377,1.41285 6.35879,2.827689 11.60535,5.075614 10.91295,4.697634 10.91295,5.957344 0,1.044845 -1.97838,4.92248 -3.24651,6.363129 -1.4559,1.654002 -1.79468,1.649154 -4.17458,-0.05976 -1.11516,-0.800758 -4.43842,-3.193691 -7.38503,-5.317629 -2.94661,-2.12394 -5.51431,-3.921892 -5.706,-3.995453 -0.4967,-0.1906 -0.47963,0.123643 0.54712,10.075403 0.88515,8.579321 0.89669,8.815543 0.4473,9.144151 -0.25373,0.185528 -0.85295,0.446125 -1.33161,0.5791 -1.00772,0.279947 -5.89328,0.283598 -7.06565,0.0053 z"
       id="path3734"
       inkscape:connector-curvature="0" />
    <path
       style="fill:#ffffff;stroke-width:0.24541949"
       d="m 165.28946,114.2262 c -0.0875,-2.41755 -0.15915,-10.77798 -0.15915,-18.578737 V 81.464265 l -1.04304,-0.710873 c -0.57367,-0.390979 -7.61414,-4.499495 -15.64549,-9.130034 -8.03135,-4.630538 -14.78861,-8.534741 -15.0161,-8.676002 -0.37026,-0.229904 -0.32832,-0.351291 0.40003,-1.157482 0.96942,-1.073035 2.58743,-3.793308 3.73996,-6.287821 l 0.83313,-1.8032 1.03343,0.595799 c 7.15593,4.125608 26.49669,15.332071 28.7143,16.637701 3.69903,2.177828 5.21931,3.677183 6.6079,6.517011 l 1.05162,2.150675 0.0656,19.510846 0.0656,19.510855 h -5.24425 -5.24425 z"
       id="path3736"
       inkscape:connector-curvature="0" />
    <path
       style="fill:#ffffff;stroke-width:0.24541949"
       d="m 166.29605,180.44979 c -0.59283,-0.32162 -0.67491,-0.51057 -0.67491,-1.55367 0,-1.33875 0.52224,-6.57172 1.23783,-12.40351 0.26406,-2.15197 0.4801,-4.33702 0.4801,-4.85568 0,-0.85078 -0.0456,-0.91858 -0.46679,-0.6932 -0.25672,0.1374 -3.70794,2.56976 -7.66935,5.40525 -4.83901,3.46364 -7.40824,5.15628 -7.82933,5.15803 -0.76383,0.003 -1.77129,-1.00664 -3.14457,-3.15203 -1.24262,-1.94125 -2.07427,-4.10816 -1.87755,-4.89197 0.16651,-0.66345 2.55834,-1.87057 10.92539,-5.51396 2.63213,-1.14614 5.28266,-2.30534 5.89007,-2.57598 l 1.10439,-0.49209 -2.33148,-1.09382 c -1.28232,-0.60159 -5.24341,-2.35447 -8.80243,-3.89528 -5.3668,-2.32345 -6.51246,-2.90616 -6.71429,-3.41503 -0.67955,-1.71336 3.31261,-8.34426 5.02371,-8.34426 0.40984,0 1.93105,0.9487 4.39419,2.74042 10.81293,7.8655 11.49821,8.32741 11.49512,7.7483 -0.002,-0.30207 -0.38682,-4.13849 -0.85604,-8.52536 -0.46922,-4.38688 -0.85444,-8.54336 -0.85605,-9.23663 -0.003,-1.21269 0.032,-1.27784 0.91741,-1.71793 0.76787,-0.38168 1.47279,-0.45485 4.25546,-0.4417 2.8869,0.0136 3.44762,0.0823 4.17212,0.51091 0.81928,0.48464 0.83547,0.52587 0.76439,1.94758 -0.0399,0.79887 -0.45407,5.03808 -0.92031,9.42048 -0.46626,4.38241 -0.84772,8.05451 -0.84772,8.16021 0,0.48905 0.81436,0.0408 3.31316,-1.82377 7.20187,-5.37388 12.02278,-8.78251 12.42131,-8.78251 0.93956,0 1.75299,0.64227 2.77563,2.19161 2.11866,3.20985 2.88103,5.3129 2.26616,6.25134 -0.24506,0.37399 -3.06684,1.75105 -8.8549,4.32127 -4.67237,2.0748 -8.45892,3.8813 -8.41455,4.01443 0.0444,0.13313 0.9577,0.61573 2.02959,1.07245 8.99109,3.83091 14.91838,6.59236 15.25594,7.10755 0.52441,0.80037 0.0836,2.26139 -1.45588,4.82448 -1.45895,2.42912 -2.5392,3.59392 -3.3331,3.59392 -0.67493,0 -0.34823,0.21629 -7.78181,-5.15184 -6.95859,-5.02512 -7.97933,-5.72523 -8.12899,-5.57557 -0.0651,0.0652 0.27398,3.85847 0.75351,8.42971 0.47953,4.57124 0.87186,8.89659 0.87186,9.61188 0,1.25207 -0.0317,1.3138 -0.85109,1.65616 -1.21335,0.50697 -7.58761,0.48442 -8.5362,-0.0302 z"
       id="path3738"
       inkscape:connector-curvature="0" />
    <path
       style="fill:#ffffff;stroke-width:0.24541949"
       d="m 101.19852,196.58917 c -1.762592,-0.53114 -1.479187,-0.38314 -7.607999,-3.97315 -2.699615,-1.58131 -9.712477,-5.61025 -15.584138,-8.95318 -5.871661,-3.34293 -10.727061,-6.125 -10.789778,-6.18237 -0.06271,-0.0573 -0.0075,-0.25395 0.12271,-0.43685 1.482689,-2.08274 2.556454,-3.8819 3.622352,-6.06949 0.702545,-1.44186 1.362247,-2.62908 1.466001,-2.63826 0.275469,-0.0244 15.275462,8.57128 18.585948,10.65056 3.764931,2.3647 10.914584,6.58187 12.299024,7.25448 l 1.11087,0.5397 1.08712,-0.55023 c 1.07487,-0.54402 13.61563,-7.72163 25.25748,-14.45589 3.98085,-2.30274 6.04376,-3.36905 6.11136,-3.15893 0.30489,0.94746 2.65397,5.15422 3.83789,6.87291 0.75217,1.09193 1.27934,2.0679 1.17149,2.16884 -0.22703,0.21244 -13.78011,8.07076 -24.48739,14.19821 -4.04654,2.31571 -7.9119,4.37793 -8.58969,4.58271 -1.99287,0.60212 -5.86147,0.67882 -7.61325,0.15094 z"
       id="path3740"
       inkscape:connector-curvature="0" />
    <path
       style="fill:#ffffff;stroke-width:0.24541949"
       d="m 34.044037,180.46503 c -0.355191,-0.19298 -0.702521,-0.4987 -0.771842,-0.67934 -0.140555,-0.36628 0.227627,-4.22347 1.258499,-13.18444 0.380439,-3.30703 0.657979,-6.05552 0.616754,-6.10778 -0.04122,-0.0522 -1.26544,0.77174 -2.720476,1.83106 -11.099035,8.08058 -12.704087,9.18511 -13.347293,9.18511 -0.887386,0 -2.487704,-1.81961 -3.838195,-4.36413 -1.263496,-2.38062 -1.489218,-3.44756 -0.87814,-4.15079 0.441205,-0.50774 3.506663,-1.941 12.778428,-5.97456 2.597599,-1.13004 4.635821,-2.14172 4.529384,-2.24816 -0.238634,-0.23862 -7.117622,-3.32128 -12.565453,-5.63088 -4.482412,-1.90032 -5.291253,-2.49972 -5.056763,-3.74734 0.254931,-1.3564 2.205827,-4.90158 3.354285,-6.09545 1.801831,-1.87307 0.876251,-2.31406 11.641968,5.5468 3.239538,2.36543 5.925057,4.2027 5.967821,4.08279 0.06705,-0.18796 -1.429249,-14.93859 -1.809486,-17.83806 -0.106931,-0.81542 -0.03468,-1.13036 0.346891,-1.51192 0.762973,-0.76297 2.950647,-1.09393 5.906959,-0.89363 2.567713,0.17398 3.764229,0.52474 4.014463,1.17685 0.071,0.18501 -0.299662,4.35816 -0.823694,9.27366 -1.077168,10.104 -1.055083,9.79623 -0.702971,9.79623 0.143482,0 3.097718,-2.07851 6.564971,-4.6189 9.638355,-7.06184 9.151947,-6.81351 10.540031,-5.38136 1.67703,1.73025 3.879108,6.3483 3.57736,7.50219 -0.140091,0.53571 -1.66603,1.27898 -11.437315,5.57107 -3.343015,1.46844 -6.047374,2.76239 -6.009685,2.87546 0.03768,0.11307 2.662446,1.34441 5.832792,2.73631 10.144295,4.45371 10.910298,4.81393 11.34756,5.33629 0.632698,0.75583 0.550949,1.1533 -0.786807,3.82551 -1.469549,2.93547 -2.951261,4.73345 -3.897022,4.72882 -0.454605,-0.002 -2.412692,-1.28008 -6.421404,-4.19063 -7.055868,-5.12295 -9.328026,-6.68434 -9.490571,-6.5218 -0.06859,0.0686 0.16809,2.92181 0.525966,6.34049 1.388822,13.26701 1.384616,12.7328 0.105413,13.39069 -0.875962,0.45051 -7.500393,0.4028 -8.352428,-0.0602 z"
       id="path3742"
       inkscape:connector-curvature="0" />
  </g>
</svg>
